<svg width="349" height="24" viewBox="0 0 349 24" fill="none" xmlns="http://www.w3.org/2000/svg">
<g clip-path="url(#clip0_1_293)">
<path d="M281.5 17C286.194 17 290 13.1944 290 8.5C290 3.80558 286.194 0 281.5 0C276.806 0 273 3.80558 273 8.5C273 13.1944 276.806 17 281.5 17Z" fill="white"/>
<path d="M281.5 0C276.806 0 273 3.80576 273 8.5C273 12.1029 275.239 15.1811 278.401 16.4193C278.324 15.7477 278.261 14.7123 278.429 13.9778C278.583 13.3132 279.422 9.75226 279.422 9.75226C279.422 9.75226 279.17 9.24156 279.17 8.493C279.17 7.3107 279.856 6.42922 280.709 6.42922C281.437 6.42922 281.787 6.9749 281.787 7.62551C281.787 8.35309 281.325 9.44444 281.08 10.4588C280.877 11.3054 281.507 11.9979 282.34 11.9979C283.851 11.9979 285.012 10.4029 285.012 8.10823C285.012 6.07243 283.55 4.65226 281.458 4.65226C279.037 4.65226 277.617 6.4642 277.617 8.3391C277.617 9.06667 277.897 9.85021 278.247 10.277C278.317 10.3609 278.324 10.4379 278.303 10.5218C278.24 10.7877 278.093 11.3683 278.065 11.4872C278.03 11.6412 277.939 11.6761 277.778 11.5992C276.715 11.1025 276.05 9.55638 276.05 8.30412C276.05 5.62469 277.995 3.16214 281.668 3.16214C284.613 3.16214 286.908 5.26091 286.908 8.07325C286.908 11.0045 285.061 13.3621 282.5 13.3621C281.64 13.3621 280.828 12.9144 280.556 12.3827L280.024 14.4045C279.835 15.1461 279.317 16.0695 278.967 16.6362C279.765 16.8811 280.605 17.014 281.486 17.014C286.18 17.014 289.986 13.2082 289.986 8.51399C290 3.80576 286.194 0 281.5 0Z" fill="#241C15"/>
</g>
<g clip-path="url(#clip1_1_293)">
<path d="M236.109 11.731L236.108 6.051L241.63 8.901L236.109 11.731ZM248.234 5.067C248.234 5.067 248.034 3.674 247.422 3.061C246.645 2.256 245.774 2.252 245.374 2.205C242.514 2 238.224 2 238.224 2H238.215C238.215 2 233.925 2 231.065 2.205C230.665 2.252 229.795 2.256 229.017 3.061C228.405 3.674 228.205 5.067 228.205 5.067C228.205 5.067 228.001 6.703 228.001 8.339V9.873C228.001 11.509 228.205 13.145 228.205 13.145C228.205 13.145 228.404 14.538 229.017 15.151C229.795 15.956 230.816 15.931 231.271 16.015C232.906 16.17 238.22 16.218 238.22 16.218C238.22 16.218 242.514 16.212 245.374 16.007C245.773 15.96 246.644 15.956 247.422 15.15C248.034 14.537 248.234 13.144 248.234 13.144C248.234 13.144 248.438 11.509 248.438 9.872V8.338C248.438 6.703 248.234 5.066 248.234 5.066V5.067Z" fill="#241C15"/>
</g>
<g clip-path="url(#clip2_1_293)">
<path fill-rule="evenodd" clip-rule="evenodd" d="M201.486 14.4859H198.966V10.5405C198.966 9.59981 198.949 8.3895 197.655 8.3895C196.343 8.3895 196.143 9.41469 196.143 10.4734V14.4859H193.625V6.37311H196.042V7.48236H196.076C196.412 6.84439 197.235 6.17194 198.462 6.17194C201.015 6.17194 201.486 7.85164 201.486 10.0366V14.4859ZM190.782 5.26481C189.972 5.26481 189.319 4.60983 189.319 3.80233C189.319 2.99531 189.972 2.34033 190.782 2.34033C191.588 2.34033 192.243 2.99531 192.243 3.80233C192.243 4.60983 191.588 5.26481 190.782 5.26481ZM189.519 14.4859H192.043V6.37311H189.519V14.4859ZM202.742 0H188.254C187.562 0 187 0.548722 187 1.22589V15.7732C187 16.4503 187.562 17 188.254 17H202.742C203.436 17 204 16.4503 204 15.7732V1.22589C204 0.548722 203.436 0 202.742 0Z" fill="#241C15"/>
</g>
<g clip-path="url(#clip3_1_293)">
<path d="M152.518 0C155.103 0 155.427 0.01 156.442 0.055C157.455 0.099 158.147 0.253 158.752 0.478C159.378 0.711 159.909 1.022 160.438 1.528C160.967 2.034 161.293 2.542 161.536 3.141C161.771 3.72 161.932 4.382 161.978 5.351C162.024 6.322 162.035 6.632 162.035 9.105C162.035 11.578 162.024 11.888 161.978 12.859C161.932 13.828 161.771 14.49 161.536 15.069C161.293 15.668 160.967 16.175 160.438 16.682C159.909 17.188 159.378 17.499 158.752 17.732C158.147 17.957 157.455 18.111 156.442 18.155C155.427 18.199 155.103 18.21 152.518 18.21C149.933 18.21 149.609 18.2 148.594 18.155C147.581 18.111 146.889 17.957 146.284 17.732C145.658 17.499 145.127 17.188 144.598 16.682C144.069 16.176 143.743 15.668 143.5 15.069C143.265 14.49 143.104 13.828 143.058 12.859C143.012 11.888 143.001 11.578 143.001 9.105C143.001 6.632 143.012 6.322 143.058 5.351C143.104 4.382 143.265 3.72 143.5 3.141C143.743 2.542 144.069 2.035 144.598 1.528C145.127 1.022 145.658 0.711 146.284 0.478C146.889 0.253 147.581 0.099 148.594 0.055C149.609 0.011 149.933 0 152.518 0V0ZM152.518 1.64C149.976 1.64 149.675 1.649 148.672 1.693C147.744 1.733 147.24 1.882 146.905 2.006C146.461 2.171 146.144 2.368 145.811 2.687C145.478 3.006 145.272 3.309 145.099 3.734C144.969 4.055 144.814 4.537 144.771 5.425C144.725 6.385 144.715 6.673 144.715 9.104C144.715 11.535 144.725 11.823 144.771 12.783C144.813 13.671 144.968 14.153 145.099 14.474C145.272 14.899 145.478 15.202 145.811 15.521C146.144 15.84 146.461 16.037 146.905 16.202C147.24 16.327 147.744 16.475 148.672 16.515C149.676 16.559 149.977 16.568 152.518 16.568C155.06 16.568 155.361 16.559 156.364 16.515C157.292 16.475 157.796 16.326 158.131 16.202C158.575 16.037 158.892 15.84 159.225 15.521C159.558 15.202 159.764 14.899 159.937 14.474C160.067 14.153 160.222 13.671 160.265 12.783C160.311 11.823 160.321 11.535 160.321 9.104C160.321 6.673 160.311 6.385 160.265 5.425C160.223 4.537 160.068 4.055 159.937 3.734C159.764 3.309 159.558 3.006 159.225 2.687C158.892 2.368 158.575 2.171 158.131 2.006C157.796 1.881 157.292 1.733 156.364 1.693C155.36 1.649 155.059 1.64 152.518 1.64ZM152.518 4.429C155.217 4.429 157.406 6.522 157.406 9.104C157.406 11.686 155.218 13.779 152.518 13.779C149.819 13.779 147.63 11.686 147.63 9.104C147.63 6.522 149.818 4.429 152.518 4.429ZM152.518 12.139C154.27 12.139 155.691 10.78 155.691 9.104C155.691 7.428 154.271 6.069 152.518 6.069C150.766 6.069 149.345 7.428 149.345 9.104C149.345 10.78 150.765 12.139 152.518 12.139ZM158.741 4.244C158.741 4.847 158.23 5.337 157.599 5.337C156.968 5.337 156.457 4.848 156.457 4.244C156.457 3.641 156.968 3.151 157.599 3.151C158.23 3.151 158.741 3.64 158.741 4.244Z" fill="#241C15"/>
</g>
<g clip-path="url(#clip4_1_293)">
<path d="M116.762 3.53C117.567 3.031 118.185 2.239 118.476 1.296C117.722 1.758 116.889 2.095 115.999 2.275C115.29 1.49 114.276 1 113.154 1C111.003 1 109.257 2.809 109.257 5.039C109.257 5.356 109.29 5.663 109.357 5.959C106.117 5.79 103.246 4.184 101.322 1.737C100.986 2.336 100.795 3.03 100.795 3.77C100.795 5.171 101.483 6.407 102.529 7.132C101.891 7.112 101.289 6.929 100.762 6.628V6.678C100.762 8.636 102.106 10.269 103.89 10.638C103.563 10.733 103.219 10.78 102.863 10.78C102.612 10.78 102.367 10.756 102.129 10.708C102.625 12.312 104.064 13.48 105.77 13.512C104.436 14.596 102.754 15.242 100.929 15.242C100.615 15.242 100.303 15.224 99.999 15.187C101.724 16.331 103.774 17 105.974 17C113.145 17 117.065 10.846 117.065 5.508L117.055 4.984C117.817 4.414 118.478 3.704 118.999 2.893C118.301 3.214 117.549 3.432 116.761 3.529L116.762 3.53Z" fill="#241C15"/>
</g>
<g clip-path="url(#clip5_1_293)">
<path d="M58.976 16.916C58.437 16.916 58 16.498 58 15.982V0.933023C58 0.417023 58.437 -0.000976562 58.976 -0.000976562H74.709C75.248 -0.000976562 75.685 0.417023 75.685 0.933023V15.982C75.685 16.498 75.248 16.916 74.709 16.916H70.202V10.365H72.501L72.845 7.81202H70.202V6.18202C70.202 5.44302 70.417 4.93902 71.525 4.93902L72.938 4.93802V2.65502C72.694 2.62402 71.855 2.55402 70.879 2.55402C68.841 2.55402 67.446 3.74402 67.446 5.92902V7.81202H65.141V10.365H67.446V16.916H58.976Z" fill="#241C15"/>
</g>
<defs>
<clipPath id="clip0_1_293">
<rect width="17" height="17" fill="white" transform="translate(273)"/>
</clipPath>
<clipPath id="clip1_1_293">
<rect width="21" height="15" fill="white" transform="translate(228 2)"/>
</clipPath>
<clipPath id="clip2_1_293">
<rect width="17" height="17" fill="white" transform="translate(187)"/>
</clipPath>
<clipPath id="clip3_1_293">
<rect width="20" height="19" fill="white" transform="translate(143)"/>
</clipPath>
<clipPath id="clip4_1_293">
<rect width="19" height="16" fill="white" transform="translate(100 1)"/>
</clipPath>
<clipPath id="clip5_1_293">
<rect width="18" height="17" fill="white" transform="translate(58)"/>
</clipPath>
</defs>
</svg>
